<?xml version="1.0" ?><svg enable-background="new 0 0 64 64" height="64px" id="XMLID_2_" version="1.1" viewBox="0 0 64 64" width="64px" xml:space="preserve" xmlns="http://www.w3.org/2000/svg" xmlns:xlink="http://www.w3.org/1999/xlink"><g id="filled-line-79"><path d="M16.0909,50.1152h-7.541c-1.1035,0-2,0.8975-2,2s0.8965,2,2,2h14.96   c-0.4819,0.0043-0.9678-0.0419-1.46-0.1211C19.5928,53.5993,17.4512,52.1317,16.0909,50.1152z" fill="#683B1A"/><g><g><path d="M38.5499,45.6004v7.5148c0,0.5518,0.4492,1,1,1h7.4414c0.3672,0,0.6973-0.1934,0.8828-0.5166     c0.0859-0.1494,0.2578-0.543,0.0039-0.9766c-0.7812-1.335-2.168-2.248-3.7109-2.4404l-0.9746-0.1211l0.502-5.3703     c-0.6895,0.3213-1.4082,0.5605-2.1367,0.707C40.4014,45.6313,39.7047,45.6004,38.5499,45.6004z" fill="#D1D8DC"/></g><g><path d="M38.087,10.1152c-1.3691,0-2.6582,0.5342-3.5879,1.4648l-4.7188,4.7178     c-0.7812,0.7832-1.2305,1.8672-1.2305,2.9736v1.6211c0,2.5254,1.6816,4.6816,4,5.126c0.3398,0.0654,0.6719,0.0752,1,0.0752h1     v1.999l-0.5,0.2881c-3.7402,2.1543-13.873,8.0664-15.8457,9.5352c-2.7891,2.0771-4.1055,5.3594-3.5176,8.7812     c0.6348,3.7012,3.6621,6.7021,7.3633,7.2969c4.25,0.6846,8.2969-1.6064,9.8672-5.5635c0.5605-1.4072,1.8711-2.3164,3.3379-2.3164     h4.2949c0.5977,0,1.207-0.0615,1.8105-0.1836c3.543-0.7139,6.4434-3.6885,7.0508-7.2344     c0.584-3.3906-0.7109-6.6572-3.4648-8.7383l-0.3965-0.2998v-5.543h7c1.8613,0,4.2422-1.3486,5.2012-2.9443l2.125-3.542     c0.2695-0.4512,0.0977-0.8545,0.0117-1.0068s-0.3438-0.5068-0.8691-0.5068h-1.9844c-1.8438,0-3.6465-0.748-4.9492-2.0508     l-2.4844-2.4844c-0.9297-0.9307-2.2188-1.4648-3.5352-1.4648H38.087z" fill="#AA7135"/></g><circle cx="47.0499" cy="15.6152" fill="#010101" r="1.5"/><g><path d="M38.087,10.1152c-1.3691,0-2.6543,0.5332-3.623,1.501l-4.6816,4.6816     c-0.7949,0.7939-1.2324,1.8496-1.2324,2.9736v1.6211c0,2.5254,1.6836,4.6816,4.002,5.126     c1.5098,0.29,3.0059-0.0791,4.1816-1.0469c1.1543-0.9551,1.8164-2.3604,1.8164-3.8564v-11H38.087z" fill="#333333"/></g><path d="M33.5201,55.1152l-9.4592,0c0-3.3137,2.6863-6,6-6c2.2615,0,4.2308,1.2512,5.2533,3.099    C36.0347,53.5162,35.008,55.1152,33.5201,55.1152z" fill="#D1D8DC"/><g><path d="M58.0176,15.1152h-1.9824c-1.5913,0-3.1177-0.6323-4.2427-1.7573l-2.4854-2.4854     c-0.0024-0.0027-0.0063-0.0044-0.0088-0.0073c1.3867,1.7168,2.2515,3.8716,2.2515,6.25c0,3.2866-1.6069,6.1772-4.0547,8h4.0547     c2.2002,0,4.9263-1.5435,6.0581-3.4302l2.1245-3.541C60.5323,16.811,59.5723,15.1152,58.0176,15.1152z" fill="#D1D8DC"/></g><path d="M29.5504,37.1152c0,0.0171,0.0049,0.0327,0.0049,0.0498c-0.0073-0.0059-0.0142-0.0125-0.022-0.0181    c-0.0127-0.0107-0.0249-0.022-0.0381-0.0317H29.5504z" fill="#AA7135"/><path d="M58.0176,15.1152h-1.9824c-0.0703,0-0.1372-0.0181-0.207-0.0205c-0.1733,0.3657-0.2783,0.77-0.2783,1.2017    c0,1.5566,1.2617,2.8188,2.8188,2.8188c0.3062,0,0.5957-0.0613,0.8721-0.1519l0.4917-0.8193    C60.5323,16.811,59.5723,15.1152,58.0176,15.1152z" fill="#010101"/></g><g><circle cx="47.0499" cy="15.6152" fill="#010101" r="1.5"/><path d="M58.0176,15.1152c-2.3164,0-4.3047,0.163-6.2251-1.7574l-2.4854-2.4852    c-1.1255-1.1252-2.6514-1.7573-4.2427-1.7573H38.087h-0.042c-1.5942,0-3.123,0.6318-4.2524,1.7573l-0.0366,0.0365l-4.6816,4.6815    c-0.9761,0.976-1.5244,2.2998-1.5244,3.6802v1.5712c0,2.8473,2.2598,5.7842,5.0762,6.2042    c0.3125,0.0465,0.6206,0.069,0.9238,0.069v0.3995c-4.9287,2.8405-15.0415,8.5685-17.0439,10.5559    c-1.6851,1.6859-2.9561,4.351-2.9561,7.0447c0,1.2024,0.1572,2.4252,0.8564,4.0151l-5.8564-0.0151c-1.6567,0-3,1.3433-3,3    s1.3433,3,3,3h24.9702c1.4858,0,2.5156-1.5955,1.7974-2.896c-0.6396-1.1577-1.6504-2.0813-2.8716-2.6112    c0.687-1.3645,1.0859-2.4938,2.8091-2.4938h2.2949v6.001c0,1.1045,0.8955,2,2,2h7.4409c1.5337,0,2.5249-1.6727,1.7505-2.9971    c-0.9219-1.5774-2.5498-2.6915-4.4507-2.9282l0.4448-3.5583c2.4043-1.4758,4.1758-3.9277,4.6631-6.7662    c0.6816-3.9719-1.0093-7.559-3.8486-9.7047v-4.0454h6c2.2002,0,4.9263-1.5436,6.0581-3.4302    c0.4771-0.7948,2.4175-3.6769,2.4126-4.5767C60.0152,16.0691,59.1837,15.1152,58.0176,15.1152z M33.5411,25.0938    c-2.4453,0-3.9912-2.0714-3.9912-4.201v-1.6216c0-0.8314,0.3174-1.6455,0.9385-2.2664l4.6816-4.6814    c0.6284-0.6282,1.4717-1.0464,2.3799-1.1577v9.9495C37.5499,23.2546,35.8272,25.0938,33.5411,25.0938z M8.5499,53.1152    c-0.5513,0-1-0.4486-1-1s0.4487-1,0.9946-1c7.2427,0.0187,5.4468,0.014,7.0693,0.0182c0.7407,0.9727,0.8613,1.1372,1.9956,1.9818    H8.5499z M55.8931,20.656c-0.8115,1.3525-2.7661,2.4592-4.3433,2.4592h-5.1011c-1.3018,0-2.4014-0.8385-2.8159-2h-2.083    c0.2559,1.2559,0.9941,2.3285,2,3.0507v5.9901c2.8809,2.1777,4.5146,4.6582,3.8774,8.371    c-0.5063,2.9481-2.2896,4.5109-4.5571,5.9028c-0.4805,3.8439-0.626,5.0063-0.8125,6.4976c2.0171,0.2511,3.834,0.255,4.9331,2.1879    c-4.1821,0-3.2681,0-7.4409,0c0-4.7947,0-5.1813,0-10h-2v1.999c-0.5298,0-0.9512,0-2.2949,0    c-0.6172,0-1.1929,0.1637-1.7388,0.3944c0.0981-2.7178-0.8853-5.4537-2.896-7.4647l-1.4141,1.4141    c2.9653,2.9667,2.7837,7.3066,1.0938,9.9541l-0.5996,1.1854c1.5557,0.6746,3.0469,1.0959,3.8198,2.5177H23.544    c-4.4312-0.004-7.9307-3.5732-7.9834-7.8923c-0.0425-2.3928,1.043-4.8679,3.2402-6.5046    c2.2012-1.6394,14.3706-8.6774,16.749-10.0479c0-0.5439,0.001-1.4054-0.0015-1.9222c2.3257-0.8262,4.0015-3.0238,4.0015-5.6329    v-10h5.5151c1.061,0,2.0781,0.4214,2.8281,1.1715l2.4849,2.4851c1.4243,1.4243,3.2969,2.2185,5.2959,2.3081    c0.2114,0.7271,0.7031,1.327,1.3555,1.6824L55.8931,20.656z" fill="#010101"/></g><path d="M43.6329,21.1152h-2.083c0.4644,2.2794,2.4839,4,4.8989,4v-2   C45.147,23.1152,44.0474,22.2767,43.6329,21.1152z" fill="#010101"/></g></svg>