<?xml version="1.0" standalone="no"?>
<!DOCTYPE svg PUBLIC "-//W3C//DTD SVG 20010904//EN"
 "http://www.w3.org/TR/2001/REC-SVG-20010904/DTD/svg10.dtd">
<svg version="1.0" xmlns="http://www.w3.org/2000/svg"
 width="700.000000pt" height="700.000000pt" viewBox="0 0 700.000000 700.000000"
 preserveAspectRatio="xMidYMid meet">
<metadata>
Created by potrace 1.11, written by Peter Selinger 2001-2013
</metadata>
<g transform="translate(0.000000,700.000000) scale(0.100000,-0.100000)"
fill="#000000" stroke="none">
<path d="M4127 6003 c-1 0 -26 -4 -56 -8 -30 -4 -82 -15 -115 -26 -130 -40
-171 -74 -517 -419 -301 -301 -328 -331 -362 -400 -20 -41 -43 -106 -51 -143
-20 -98 -15 -350 9 -442 34 -136 115 -266 225 -368 106 -97 226 -149 365 -160
32 -3 41 -8 43 -25 2 -15 -8 -27 -40 -45 -24 -14 -128 -74 -233 -135 -104 -60
-206 -119 -225 -130 -19 -11 -61 -35 -92 -53 -102 -60 -261 -153 -302 -177
-326 -188 -777 -477 -906 -581 -185 -149 -322 -391 -369 -651 -34 -188 -8
-439 61 -577 6 -13 8 -26 4 -30 -3 -4 -152 -6 -331 -6 -227 1 -340 -2 -377
-11 -143 -33 -248 -167 -248 -317 0 -136 94 -268 221 -307 63 -20 87 -21 1463
-21 1039 -1 1408 2 1437 11 48 14 112 67 134 111 23 46 29 109 15 153 -31 95
-165 242 -270 298 -30 16 -56 30 -58 32 -7 5 75 147 106 184 17 21 53 48 79
61 42 20 64 23 208 25 l161 3 1 -353 c0 -345 1 -353 23 -396 30 -60 74 -97
134 -115 77 -23 872 -22 944 1 94 31 153 117 147 218 -9 166 -247 371 -478
411 -21 3 -36 9 -33 13 2 4 7 36 11 72 3 36 8 72 10 80 2 8 7 42 10 75 3 33 8
69 10 80 2 11 4 31 4 45 1 19 20 39 82 85 232 170 392 430 436 708 10 57 9
271 0 332 -25 156 -86 310 -180 449 -23 34 -87 107 -143 162 l-102 101 1 217
0 216 31 1 c17 0 173 0 346 0 173 0 341 4 373 10 209 35 422 166 548 338 36
48 221 356 254 422 47 93 32 203 -37 265 -57 52 -81 58 -293 65 -183 5 -207 8
-284 34 -123 42 -185 87 -395 294 -197 192 -250 234 -352 275 -107 44 -164 48
-617 50 -236 0 -429 0 -430 -1z"/>
</g>
</svg>
